<?xml version="1.0" encoding="UTF-8" standalone="no"?>
<svg width="11px" height="8px" viewBox="0 0 11 8" version="1.1" xmlns="http://www.w3.org/2000/svg" xmlns:xlink="http://www.w3.org/1999/xlink" xmlns:sketch="http://www.bohemiancoding.com/sketch/ns">
    <title>layout-grid</title>
    <description>Created with Sketch (http://www.bohemiancoding.com/sketch)</description>
    <defs></defs>
    <g id="Page-1" stroke="none" stroke-width="1" fill="none" fill-rule="evenodd" sketch:type="MSPage">
        <path d="M0,0 L0,2 L3,2 L3,0 L0,0 Z M4,0 L4,2 L7,2 L7,0 L4,0 Z M8,0 L8,2 L11,2 L11,0 L8,0 Z M0,3 L0,5 L3,5 L3,3 L0,3 Z M4,3 L4,5 L7,5 L7,3 L4,3 Z M8,3 L8,5 L11,5 L11,3 L8,3 Z M0,6 L0,8 L3,8 L3,6 L0,6 Z M4,6 L4,8 L7,8 L7,6 L4,6 Z M8,6 L8,8 L11,8 L11,6 L8,6 Z" id="Grid" fill="#FFFFFF" sketch:type="MSShapeGroup"></path>
    </g>
</svg>